<svg xmlns="http://www.w3.org/2000/svg" xmlns:xlink="http://www.w3.org/1999/xlink" width="375" height="812" viewBox="0 0 375 812">
  <defs>
    <filter id="Shape_shadow" x="-45.5" y="-586.5" width="270" height="270" filterUnits="userSpaceOnUse">
      <feOffset dx="10" dy="10" input="SourceAlpha"/>
      <feGaussianBlur stdDeviation="7.5" result="blur"/>
      <feFlood flood-color="#97a7c3" flood-opacity="0.498"/>
      <feComposite operator="in" in2="blur"/>
      <feComposite in="SourceGraphic"/>
    </filter>
    <filter id="Shape_light" x="-65.5" y="-606.5" width="270" height="270" filterUnits="userSpaceOnUse">
      <feOffset dx="-10" dy="-10" input="SourceAlpha"/>
      <feGaussianBlur stdDeviation="7.5" result="blur-2"/>
      <feFlood flood-color="#fff"/>
      <feComposite operator="in" in2="blur-2"/>
      <feComposite in="SourceGraphic"/>
    </filter>
    <filter id="Shape_shadow-2" x="284.5" y="-562.5" width="366" height="366" filterUnits="userSpaceOnUse">
      <feOffset dx="10" dy="10" input="SourceAlpha"/>
      <feGaussianBlur stdDeviation="7.5" result="blur-3"/>
      <feFlood flood-color="#97a7c3" flood-opacity="0.498"/>
      <feComposite operator="in" in2="blur-3"/>
      <feComposite in="SourceGraphic"/>
    </filter>
    <filter id="Shape_light-2" x="264.5" y="-582.5" width="366" height="366" filterUnits="userSpaceOnUse">
      <feOffset dx="-10" dy="-10" input="SourceAlpha"/>
      <feGaussianBlur stdDeviation="7.5" result="blur-4"/>
      <feFlood flood-color="#fff"/>
      <feComposite operator="in" in2="blur-4"/>
      <feComposite in="SourceGraphic"/>
    </filter>
    <filter id="Shape_shadow-3" x="-99.5" y="-213.5" width="260" height="260" filterUnits="userSpaceOnUse">
      <feOffset dx="10" dy="10" input="SourceAlpha"/>
      <feGaussianBlur stdDeviation="7.5" result="blur-5"/>
      <feFlood flood-color="#97a7c3" flood-opacity="0.498"/>
      <feComposite operator="in" in2="blur-5"/>
      <feComposite in="SourceGraphic"/>
    </filter>
    <filter id="Shape_light-3" x="-119.5" y="-233.5" width="260" height="260" filterUnits="userSpaceOnUse">
      <feOffset dx="-10" dy="-10" input="SourceAlpha"/>
      <feGaussianBlur stdDeviation="7.5" result="blur-6"/>
      <feFlood flood-color="#fff"/>
      <feComposite operator="in" in2="blur-6"/>
      <feComposite in="SourceGraphic"/>
    </filter>
    <filter id="Shape_shadow-4" x="-332.5" y="-164.5" width="1061" height="1061" filterUnits="userSpaceOnUse">
      <feOffset dx="10" dy="10" input="SourceAlpha"/>
      <feGaussianBlur stdDeviation="7.5" result="blur-7"/>
      <feFlood flood-color="#97a7c3" flood-opacity="0.498"/>
      <feComposite operator="in" in2="blur-7"/>
      <feComposite in="SourceGraphic"/>
    </filter>
    <filter id="Shape_light-4" x="-352.5" y="-184.5" width="1061" height="1061" filterUnits="userSpaceOnUse">
      <feOffset dx="-10" dy="-10" input="SourceAlpha"/>
      <feGaussianBlur stdDeviation="7.5" result="blur-8"/>
      <feFlood flood-color="#fff"/>
      <feComposite operator="in" in2="blur-8"/>
      <feComposite in="SourceGraphic"/>
    </filter>
    <filter id="Shadow" x="-22.5" y="131.5" width="450" height="605" filterUnits="userSpaceOnUse">
      <feOffset dx="15" dy="15" input="SourceAlpha"/>
      <feGaussianBlur stdDeviation="12.5" result="blur-9"/>
      <feFlood flood-color="#97a7c3" flood-opacity="0.502"/>
      <feComposite operator="in" in2="blur-9"/>
      <feComposite in="SourceGraphic"/>
    </filter>
    <filter id="Light" x="-47.5" y="101.5" width="450" height="605" filterUnits="userSpaceOnUse">
      <feOffset dx="-10" dy="-15" input="SourceAlpha"/>
      <feGaussianBlur stdDeviation="12.5" result="blur-10"/>
      <feFlood flood-color="#fff"/>
      <feComposite operator="in" in2="blur-10"/>
      <feComposite in="SourceGraphic"/>
    </filter>
    <filter id="Shape_shadow-5" x="13.5" y="20.5" width="94" height="94" filterUnits="userSpaceOnUse">
      <feOffset dx="10" dy="10" input="SourceAlpha"/>
      <feGaussianBlur stdDeviation="7.5" result="blur-11"/>
      <feFlood flood-color="#97a7c3" flood-opacity="0.498"/>
      <feComposite operator="in" in2="blur-11"/>
      <feComposite in="SourceGraphic"/>
    </filter>
    <filter id="Shape_light-5" x="-6.5" y="0.5" width="94" height="94" filterUnits="userSpaceOnUse">
      <feOffset dx="-10" dy="-10" input="SourceAlpha"/>
      <feGaussianBlur stdDeviation="7.5" result="blur-12"/>
      <feFlood flood-color="#fff"/>
      <feComposite operator="in" in2="blur-12"/>
      <feComposite in="SourceGraphic"/>
    </filter>
    <filter id="Shape_shadow-6" x="285.5" y="20.5" width="94" height="94" filterUnits="userSpaceOnUse">
      <feOffset dx="10" dy="10" input="SourceAlpha"/>
      <feGaussianBlur stdDeviation="7.5" result="blur-13"/>
      <feFlood flood-color="#97a7c3" flood-opacity="0.498"/>
      <feComposite operator="in" in2="blur-13"/>
      <feComposite in="SourceGraphic"/>
    </filter>
    <filter id="Shape_light-6" x="265.5" y="0.5" width="94" height="94" filterUnits="userSpaceOnUse">
      <feOffset dx="-10" dy="-10" input="SourceAlpha"/>
      <feGaussianBlur stdDeviation="7.5" result="blur-14"/>
      <feFlood flood-color="#fff"/>
      <feComposite operator="in" in2="blur-14"/>
      <feComposite in="SourceGraphic"/>
    </filter>
    <filter id="Ellipse_16" x="84" y="734" width="64" height="62" filterUnits="userSpaceOnUse">
      <feOffset dx="4" dy="8" input="SourceAlpha"/>
      <feGaussianBlur stdDeviation="3" result="blur-15"/>
      <feFlood flood-opacity="0.161"/>
      <feComposite operator="in" in2="blur-15"/>
      <feComposite in="SourceGraphic"/>
    </filter>
    <filter id="Ellipse_18" x="239" y="734" width="64" height="62" filterUnits="userSpaceOnUse">
      <feOffset dx="4" dy="8" input="SourceAlpha"/>
      <feGaussianBlur stdDeviation="3" result="blur-16"/>
      <feFlood flood-opacity="0.161"/>
      <feComposite operator="in" in2="blur-16"/>
      <feComposite in="SourceGraphic"/>
    </filter>
    <clipPath id="clip-path">
      <rect id="Base" width="311" height="62" rx="31" transform="translate(0 0)" fill="#84bbe4"/>
    </clipPath>
    <filter id="Shadow-2" x="66.5" y="517.5" width="270" height="137" filterUnits="userSpaceOnUse">
      <feOffset dx="15" dy="15" input="SourceAlpha"/>
      <feGaussianBlur stdDeviation="12.5" result="blur-17"/>
      <feFlood flood-color="#97a7c3" flood-opacity="0.502"/>
      <feComposite operator="in" in2="blur-17"/>
      <feComposite in="SourceGraphic"/>
    </filter>
    <filter id="Light-2" x="36.5" y="487.5" width="270" height="137" filterUnits="userSpaceOnUse">
      <feOffset dx="-15" dy="-15" input="SourceAlpha"/>
      <feGaussianBlur stdDeviation="12.5" result="blur-18"/>
      <feFlood flood-color="#fff"/>
      <feComposite operator="in" in2="blur-18"/>
      <feComposite in="SourceGraphic"/>
    </filter>
    <filter id="Shadow-3" x="475.5" y="534.5" width="270" height="137" filterUnits="userSpaceOnUse">
      <feOffset dx="15" dy="15" input="SourceAlpha"/>
      <feGaussianBlur stdDeviation="12.5" result="blur-19"/>
      <feFlood flood-color="#97a7c3" flood-opacity="0.502"/>
      <feComposite operator="in" in2="blur-19"/>
      <feComposite in="SourceGraphic"/>
    </filter>
    <filter id="Light-3" x="445.5" y="504.5" width="270" height="137" filterUnits="userSpaceOnUse">
      <feOffset dx="-15" dy="-15" input="SourceAlpha"/>
      <feGaussianBlur stdDeviation="12.5" result="blur-20"/>
      <feFlood flood-color="#fff"/>
      <feComposite operator="in" in2="blur-20"/>
      <feComposite in="SourceGraphic"/>
    </filter>
    <filter id="XMLID_3_" x="162" y="734" width="63" height="62" filterUnits="userSpaceOnUse">
      <feOffset dx="4" dy="8" input="SourceAlpha"/>
      <feGaussianBlur stdDeviation="3" result="blur-21"/>
      <feFlood flood-opacity="0.161"/>
      <feComposite operator="in" in2="blur-21"/>
      <feComposite in="SourceGraphic"/>
    </filter>
    <filter id="Path_61" x="292.435" y="26" width="57.565" height="67.227" filterUnits="userSpaceOnUse">
      <feOffset dy="3" input="SourceAlpha"/>
      <feGaussianBlur stdDeviation="3" result="blur-22"/>
      <feFlood flood-opacity="0.478"/>
      <feComposite operator="in" in2="blur-22"/>
      <feComposite in="SourceGraphic"/>
    </filter>
    <filter id="Path_62" x="287.907" y="30.446" width="61.75" height="70.734" filterUnits="userSpaceOnUse">
      <feOffset dy="3" input="SourceAlpha"/>
      <feGaussianBlur stdDeviation="3" result="blur-23"/>
      <feFlood flood-opacity="0.18"/>
      <feComposite operator="in" in2="blur-23"/>
      <feComposite in="SourceGraphic"/>
    </filter>
    <clipPath id="clip-login">
      <rect width="375" height="812"/>
    </clipPath>
  </defs>
  <g id="login" clip-path="url(#clip-login)">
    <rect width="375" height="812" fill="#ecf0f3"/>
    <g id="Circles" opacity="0">
      <g id="Shape" transform="translate(-171 -843)">
        <g transform="matrix(1, 0, 0, 1, 171, 843)" filter="url(#Shape_shadow)">
          <circle id="Shape_shadow-7" data-name="Shape shadow" cx="112.5" cy="112.5" r="112.5" transform="translate(-33 -574)" fill="#ecf0f3"/>
        </g>
        <g transform="matrix(1, 0, 0, 1, 171, 843)" filter="url(#Shape_light)">
          <circle id="Shape_light-7" data-name="Shape light" cx="112.5" cy="112.5" r="112.5" transform="translate(-33 -574)" fill="#ecf0f3"/>
        </g>
      </g>
      <g id="Shape-2" data-name="Shape" transform="translate(159 -819)">
        <g transform="matrix(1, 0, 0, 1, -159, 819)" filter="url(#Shape_shadow-2)">
          <circle id="Shape_shadow-8" data-name="Shape shadow" cx="160.5" cy="160.5" r="160.5" transform="translate(297 -550)" fill="#ecf0f3"/>
        </g>
        <g transform="matrix(1, 0, 0, 1, -159, 819)" filter="url(#Shape_light-2)">
          <circle id="Shape_light-8" data-name="Shape light" cx="160.5" cy="160.5" r="160.5" transform="translate(297 -550)" fill="#ecf0f3"/>
        </g>
      </g>
      <g id="Shape-3" data-name="Shape" transform="translate(-225 -470)">
        <g transform="matrix(1, 0, 0, 1, 225, 470)" filter="url(#Shape_shadow-3)">
          <circle id="Shape_shadow-9" data-name="Shape shadow" cx="107.5" cy="107.5" r="107.5" transform="translate(-87 -201)" fill="#ecf0f3"/>
        </g>
        <g transform="matrix(1, 0, 0, 1, 225, 470)" filter="url(#Shape_light-3)">
          <circle id="Shape_light-9" data-name="Shape light" cx="107.5" cy="107.5" r="107.5" transform="translate(-87 -201)" fill="#ecf0f3"/>
        </g>
      </g>
    </g>
    <g id="Shape-4" data-name="Shape" transform="translate(-458.192 -421.192)">
      <g transform="matrix(1, 0, 0, 1, 458.19, 421.19)" filter="url(#Shape_shadow-4)">
        <circle id="Shape_shadow-10" data-name="Shape shadow" cx="508" cy="508" r="508" transform="translate(-320 -152)" fill="#ecf0f3"/>
      </g>
      <g transform="matrix(1, 0, 0, 1, 458.19, 421.19)" filter="url(#Shape_light-4)">
        <circle id="Shape_light-10" data-name="Shape light" cx="508" cy="508" r="508" transform="translate(-320 -152)" fill="#ecf0f3"/>
      </g>
    </g>
    <g id="Group_77" data-name="Group 77" transform="translate(19 -14.866)">
      <g id="UP" transform="translate(-19 168.467)">
        <g transform="matrix(1, 0, 0, 1, 0, -153.6)" filter="url(#Shadow)">
          <rect id="Shadow-4" data-name="Shadow" width="375" height="530" rx="31" transform="translate(0 154)" fill="#ecf0f3"/>
        </g>
        <g transform="matrix(1, 0, 0, 1, 0, -153.6)" filter="url(#Light)">
          <rect id="Light-4" data-name="Light" width="375" height="530" rx="31" transform="translate(0 154)" fill="#ecf0f3" opacity="0.54"/>
        </g>
      </g>
    </g>
    <text id="DREAM_AND_ACHIEVE" data-name="DREAM AND ACHIEVE" transform="translate(83 282)" fill="#193566" font-size="19" font-family="SegoePrint-Bold, Segoe Print" font-weight="700" opacity="0"><tspan x="0" y="0">DREAM AND ACHIEVE</tspan></text>
    <g id="Shape-5" data-name="Shape" transform="translate(-112.093 -235.8)">
      <g transform="matrix(1, 0, 0, 1, 112.09, 235.8)" filter="url(#Shape_shadow-5)">
        <circle id="Shape_shadow-11" data-name="Shape shadow" cx="24.5" cy="24.5" r="24.5" transform="translate(26 33)" fill="#ecf0f3"/>
      </g>
      <g transform="matrix(1, 0, 0, 1, 112.09, 235.8)" filter="url(#Shape_light-5)">
        <circle id="Shape_light-11" data-name="Shape light" cx="24.5" cy="24.5" r="24.5" transform="translate(26 33)" fill="#ecf0f3"/>
      </g>
    </g>
    <g id="Shape-6" data-name="Shape" transform="translate(159.907 -235.8)">
      <g transform="matrix(1, 0, 0, 1, -159.91, 235.8)" filter="url(#Shape_shadow-6)">
        <circle id="Shape_shadow-12" data-name="Shape shadow" cx="24.5" cy="24.5" r="24.5" transform="translate(298 33)" fill="#ecf0f3"/>
      </g>
      <g transform="matrix(1, 0, 0, 1, -159.91, 235.8)" filter="url(#Shape_light-6)">
        <circle id="Shape_light-12" data-name="Shape light" cx="24.5" cy="24.5" r="24.5" transform="translate(298 33)" fill="#ecf0f3"/>
      </g>
    </g>
    <path id="arrow-back-outline_1" d="M19.182,25.248H4.676l5.884-5.884a1.371,1.371,0,0,0-1.939-1.939L.4,25.65a1.366,1.366,0,0,0,0,1.935l8.22,8.22A1.369,1.369,0,1,0,10.56,33.87L4.676,27.986H19.182a1.369,1.369,0,1,0,0-2.737Z" transform="translate(41 30.975)" fill="#163b87"/>
    <g transform="matrix(1, 0, 0, 1, 0, 0)" filter="url(#Ellipse_16)">
      <ellipse id="Ellipse_16-2" data-name="Ellipse 16" cx="23" cy="22" rx="23" ry="22" transform="translate(89 735)" fill="#fff" opacity="0.89"/>
    </g>
    <g transform="matrix(1, 0, 0, 1, 0, 0)" filter="url(#Ellipse_18)">
      <ellipse id="Ellipse_18-2" data-name="Ellipse 18" cx="23" cy="22" rx="23" ry="22" transform="translate(244 735)" fill="#fff" opacity="0.93"/>
    </g>
    <g id="Text_fields" data-name="Text fields" transform="translate(-1 -133.2)">
      <text id="Welcome" transform="translate(35 348.2)" fill="#193566" font-size="40" font-family="SegoeUI-Bold, Segoe UI" font-weight="700"><tspan x="0" y="0">Welcome</tspan></text>
      <text id="Let_s_get_started" data-name="Let&apos;s get started" transform="translate(35 381.2)" fill="#586e90" font-size="18" font-family="SourceSansPro-Regular, Source Sans Pro"><tspan x="0" y="0">Let&apos;s get started</tspan></text>
      <text id="Forgot_password" data-name="Forgot password" transform="translate(33 625.2)" fill="#193566" font-size="12" font-family="SourceSansPro-Regular, Source Sans Pro" text-decoration="underline"><tspan x="0" y="0">Forgot password</tspan></text>
      <g id="Group_38" data-name="Group 38" transform="translate(32 427.941)">
        <text id="your_email_here" data-name="your email here" transform="translate(25 38.259)" fill="#a9b6c9" font-size="16" font-family="SourceSansPro-Regular, Source Sans Pro"><tspan x="0" y="0">your email here</tspan></text>
        <g id="DOWN" transform="translate(0 0.259)">
          <g id="DOWN-2" data-name="DOWN" transform="translate(0 0)" clip-path="url(#clip-path)">
            <g id="Shadow_" data-name="Shadow " transform="translate(0 0)" fill="none" stroke="#97a7c3" stroke-width="5">
              <rect width="330" height="87" rx="31" stroke="none"/>
              <rect x="2.5" y="2.5" width="325" height="82" rx="28.5" fill="none"/>
            </g>
            <g id="Light-5" data-name="Light" transform="translate(-24 -23)" fill="none" stroke="#fff" stroke-width="5">
              <rect width="335" height="85" rx="31" stroke="none"/>
              <rect x="2.5" y="2.5" width="330" height="80" rx="28.5" fill="none"/>
            </g>
          </g>
        </g>
      </g>
      <g id="Group_39" data-name="Group 39" transform="translate(32 523.18)">
        <text id="your_password_here" data-name="your password here" transform="translate(25 38.02)" fill="#a9b6c9" font-size="16" font-family="SourceSansPro-Regular, Source Sans Pro"><tspan x="0" y="0">your password here</tspan></text>
        <g id="DOWN-3" data-name="DOWN" transform="translate(0 0.02)">
          <g id="DOWN-4" data-name="DOWN" transform="translate(0 0)" clip-path="url(#clip-path)">
            <g id="Shadow_2" data-name="Shadow " transform="translate(0 0)" fill="none" stroke="#97a7c3" stroke-width="5">
              <rect width="330" height="87" rx="31" stroke="none"/>
              <rect x="2.5" y="2.5" width="325" height="82" rx="28.5" fill="none"/>
            </g>
            <g id="Light-6" data-name="Light" transform="translate(-24 -23)" fill="none" stroke="#fff" stroke-width="5">
              <rect width="335" height="85" rx="31" stroke="none"/>
              <rect x="2.5" y="2.5" width="330" height="80" rx="28.5" fill="none"/>
            </g>
          </g>
        </g>
      </g>
      <g id="Icon_awesome-eye-slash" data-name="Icon awesome-eye-slash" transform="translate(300 554.2)">
        <path id="Icon_awesome-eye-slash-2" data-name="Icon awesome-eye-slash" d="M9,11.718a4.107,4.107,0,0,1-4.019-3.9L2.031,5.444A9.809,9.809,0,0,0,1,7.072a.983.983,0,0,0,0,.855,8.994,8.994,0,0,0,8,5.2,8.409,8.409,0,0,0,2.191-.306L9.731,11.642A3.9,3.9,0,0,1,9,11.718Zm8.826,1.7-3.109-2.5A9.649,9.649,0,0,0,17,7.927a.983.983,0,0,0,0-.855,8.994,8.994,0,0,0-8-5.2,8.4,8.4,0,0,0-4.143,1.1L1.279.1A.438.438,0,0,0,.647.181L.095.921a.482.482,0,0,0,.079.658L16.721,14.9a.438.438,0,0,0,.632-.082l.552-.74a.482.482,0,0,0-.079-.658ZM12.659,9.26l-1.105-.89A2.88,2.88,0,0,0,11.7,7.5a2.819,2.819,0,0,0-1.052-2.247A2.58,2.58,0,0,0,8.288,4.8a1.435,1.435,0,0,1,.262.826,1.419,1.419,0,0,1-.043.293L6.436,4.251A3.907,3.907,0,0,1,9,3.281a3.967,3.967,0,0,1,2.864,1.235A4.307,4.307,0,0,1,13.05,7.5a4.261,4.261,0,0,1-.391,1.761Z" transform="translate(0 0)" fill="#a9b6c9"/>
      </g>
      <text id="Sign_up" data-name="Sign up" transform="translate(188 781.2)" fill="#193566" font-size="18" font-family="SegoeUI-Bold, Segoe UI" font-weight="700" opacity="0.7" text-decoration="underline"><tspan x="-32.128" y="0">Sign up</tspan></text>
      <g id="UP-2" data-name="UP" transform="translate(90 673.2)">
        <g transform="matrix(1, 0, 0, 1, -89, -540)" filter="url(#Shadow-2)">
          <rect id="Shadow-5" data-name="Shadow" width="195" height="62" rx="31" transform="translate(89 540)" fill="#ecf0f3"/>
        </g>
        <g transform="matrix(1, 0, 0, 1, -89, -540)" filter="url(#Light-2)">
          <rect id="Light-7" data-name="Light" width="195" height="62" rx="31" transform="translate(89 540)" fill="#ecf0f3"/>
        </g>
        <rect id="Base-5" data-name="Base" width="195" height="62" rx="31" transform="translate(0 0)" fill="#ecf0f3"/>
      </g>
      <text id="Sign_in" data-name="Sign in" transform="translate(188 714.2)" fill="#193566" font-size="24" font-family="SegoeUI-Bold, Segoe UI" font-weight="700"><tspan x="-38.807" y="0">Sign in</tspan></text>
      <text id="Welcome-2" data-name="Welcome" transform="translate(444 348.2)" fill="#193566" font-size="40" font-family="SegoeUI-Bold, Segoe UI" font-weight="700"><tspan x="0" y="0">Welcome</tspan></text>
      <text id="Let_s_get_started-2" data-name="Let&apos;s get started" transform="translate(444 381.2)" fill="#586e90" font-size="18" font-family="SourceSansPro-Regular, Source Sans Pro"><tspan x="0" y="0">Let&apos;s get started</tspan></text>
      <text id="Accept_Terms_and_Conditions" data-name="Accept Terms and Conditions" transform="translate(465 625.2)" fill="#193566" font-size="12" font-family="SourceSansPro-Regular, Source Sans Pro"><tspan x="0" y="0">Accept </tspan><tspan y="0" text-decoration="underline">Terms and Conditions</tspan></text>
      <g id="Group_40" data-name="Group 40" transform="translate(441 427.941)">
        <text id="your_email_here-2" data-name="your email here" transform="translate(25 38.259)" fill="#a9b6c9" font-size="16" font-family="SourceSansPro-Regular, Source Sans Pro"><tspan x="0" y="0">your email here</tspan></text>
        <g id="DOWN-5" data-name="DOWN" transform="translate(0 0.259)">
          <g id="DOWN-6" data-name="DOWN" transform="translate(0 0)" clip-path="url(#clip-path)">
            <g id="Shadow_3" data-name="Shadow " transform="translate(0 0)" fill="none" stroke="#97a7c3" stroke-width="5">
              <rect width="330" height="87" rx="31" stroke="none"/>
              <rect x="2.5" y="2.5" width="325" height="82" rx="28.5" fill="none"/>
            </g>
            <g id="Light-8" data-name="Light" transform="translate(-24 -23)" fill="none" stroke="#fff" stroke-width="5">
              <rect width="335" height="85" rx="31" stroke="none"/>
              <rect x="2.5" y="2.5" width="330" height="80" rx="28.5" fill="none"/>
            </g>
          </g>
        </g>
      </g>
      <g id="Group_41" data-name="Group 41" transform="translate(441 529.18)">
        <text id="your_password_here-2" data-name="your password here" transform="translate(25 38.02)" fill="#a9b6c9" font-size="16" font-family="SourceSansPro-Regular, Source Sans Pro"><tspan x="0" y="0">your password here</tspan></text>
        <g id="DOWN-7" data-name="DOWN" transform="translate(0 0.02)">
          <g id="DOWN-8" data-name="DOWN" transform="translate(0 0)" clip-path="url(#clip-path)">
            <g id="Shadow_4" data-name="Shadow " transform="translate(0 0)" fill="none" stroke="#97a7c3" stroke-width="5">
              <rect width="330" height="87" rx="31" stroke="none"/>
              <rect x="2.5" y="2.5" width="325" height="82" rx="28.5" fill="none"/>
            </g>
            <g id="Light-9" data-name="Light" transform="translate(-24 -23)" fill="none" stroke="#fff" stroke-width="5">
              <rect width="335" height="85" rx="31" stroke="none"/>
              <rect x="2.5" y="2.5" width="330" height="80" rx="28.5" fill="none"/>
            </g>
          </g>
        </g>
      </g>
      <g id="Icon_awesome-eye-slash-3" data-name="Icon awesome-eye-slash" transform="translate(709 554.2)">
        <path id="Icon_awesome-eye-slash-4" data-name="Icon awesome-eye-slash" d="M9,11.718a4.107,4.107,0,0,1-4.019-3.9L2.031,5.444A9.809,9.809,0,0,0,1,7.072a.983.983,0,0,0,0,.855,8.994,8.994,0,0,0,8,5.2,8.409,8.409,0,0,0,2.191-.306L9.731,11.642A3.9,3.9,0,0,1,9,11.718Zm8.826,1.7-3.109-2.5A9.649,9.649,0,0,0,17,7.927a.983.983,0,0,0,0-.855,8.994,8.994,0,0,0-8-5.2,8.4,8.4,0,0,0-4.143,1.1L1.279.1A.438.438,0,0,0,.647.181L.095.921a.482.482,0,0,0,.079.658L16.721,14.9a.438.438,0,0,0,.632-.082l.552-.74a.482.482,0,0,0-.079-.658ZM12.659,9.26l-1.105-.89A2.88,2.88,0,0,0,11.7,7.5a2.819,2.819,0,0,0-1.052-2.247A2.58,2.58,0,0,0,8.288,4.8a1.435,1.435,0,0,1,.262.826,1.419,1.419,0,0,1-.043.293L6.436,4.251A3.907,3.907,0,0,1,9,3.281a3.967,3.967,0,0,1,2.864,1.235A4.307,4.307,0,0,1,13.05,7.5a4.261,4.261,0,0,1-.391,1.761Z" transform="translate(0 0)" fill="#a9b6c9"/>
      </g>
      <g id="Icon_awesome-check-circle" data-name="Icon awesome-check-circle" transform="translate(441 613.2)">
        <path id="Icon_awesome-check-circle-2" data-name="Icon awesome-check-circle" d="M16.563,8.562a8,8,0,1,1-8-8A8,8,0,0,1,16.563,8.562ZM7.637,12.8l5.935-5.935a.516.516,0,0,0,0-.73l-.73-.73a.516.516,0,0,0-.73,0L7.272,10.244l-2.26-2.26a.516.516,0,0,0-.73,0l-.73.73a.516.516,0,0,0,0,.73L6.907,12.8a.516.516,0,0,0,.73,0Z" transform="translate(-0.563 -0.563)" fill="#586e90"/>
      </g>
      <text id="Sign_in-2" data-name="Sign in" transform="translate(597 801.2)" fill="#193566" font-size="18" font-family="SegoeUI-Bold, Segoe UI" font-weight="700" opacity="0.7" text-decoration="underline"><tspan x="-29.105" y="0">Sign in</tspan></text>
      <g id="UP-3" data-name="UP" transform="translate(499 690.2)">
        <g transform="matrix(1, 0, 0, 1, -498, -557)" filter="url(#Shadow-3)">
          <rect id="Shadow-6" data-name="Shadow" width="195" height="62" rx="31" transform="translate(498 557)" fill="#ecf0f3"/>
        </g>
        <g transform="matrix(1, 0, 0, 1, -498, -557)" filter="url(#Light-3)">
          <rect id="Light-10" data-name="Light" width="195" height="62" rx="31" transform="translate(498 557)" fill="#ecf0f3"/>
        </g>
        <rect id="Base-6" data-name="Base" width="195" height="62" rx="31" transform="translate(0 0)" fill="#ecf0f3"/>
      </g>
      <text id="Sign_up-2" data-name="Sign up" transform="translate(597 715.2)" fill="#193566" font-size="24" font-family="SegoeUI-Bold, Segoe UI" font-weight="700"><tspan x="-42.838" y="0">Sign up</tspan></text>
    </g>
    <g id="google_8" transform="translate(100.757 745.706)">
      <path id="Path_21" data-name="Path 21" d="M36.157,9.353A6.778,6.778,0,0,1,42.609,4.7a6.667,6.667,0,0,1,4.234,1.513l3.336-3.341A11.481,11.481,0,0,0,32.3,6.371Z" transform="translate(-31.11)" fill="#ea4335"/>
      <path id="Path_22" data-name="Path 22" d="M46.379,307.988a7.1,7.1,0,0,1-3.87,1.033,6.777,6.777,0,0,1-6.439-4.62l-3.87,2.936a11.457,11.457,0,0,0,10.309,6.385,10.929,10.929,0,0,0,7.5-2.874Z" transform="translate(-31.015 -290.732)" fill="#34a853"/>
      <path id="Path_23" data-name="Path 23" d="M269.3,220.209a11.454,11.454,0,0,0,3.466-8.621,9.491,9.491,0,0,0-.26-2.088H261.8v4.441h6.165a5.188,5.188,0,0,1-2.294,3.408Z" transform="translate(-250.306 -200.093)" fill="#4a90e2"/>
      <path id="Path_24" data-name="Path 24" d="M10.856,149.2a6.805,6.805,0,0,1-.355-2.173,6.88,6.88,0,0,1,.341-2.142L6.985,141.9a11.635,11.635,0,0,0,0,10.233Z" transform="translate(-5.8 -135.529)" fill="#fbbc05"/>
    </g>
    <g id="XMLID_1_" transform="translate(167.479 735.4)">
      <g transform="matrix(1, 0, 0, 1, -167.48, -735.4)" filter="url(#XMLID_3_)">
        <ellipse id="XMLID_3_2" data-name="XMLID_3_" cx="22.5" cy="22" rx="22.5" ry="22" transform="translate(167 735)" fill="#346da6"/>
      </g>
      <path id="XMLID_4_" d="M189.665,132.686V120.343H187.1v-4.111h2.565v-2.485c0-3.336,1.042-5.746,4.812-5.746h4.485v4.111h-3.125c-1.6,0-1.919,1.009-1.919,2.093v2.018h4.88l-.723,4.111h-4.166v12.343h-4.244Z" transform="translate(-170.995 -98.704)" fill="#fff"/>
    </g>
    <g id="apple_8" transform="translate(254.678 742.139)">
      <path id="Path_25" data-name="Path 25" d="M55.726,6.4a6.869,6.869,0,0,1,5.2,2.772,6.037,6.037,0,0,0,.791,10.886,19.987,19.987,0,0,1-1.757,3.317c-1.143,1.757-2.751,3.942-4.743,3.963-1.773.016-2.227-1.164-4.631-1.154s-2.906,1.175-4.674,1.159c-1.992-.021-3.52-1.992-4.658-3.75C38.056,18.69,37.725,12.921,39.7,9.86A7.044,7.044,0,0,1,45.374,6.41c2.115,0,3.44,1.17,5.187,1.17C52.254,7.574,53.285,6.4,55.726,6.4ZM55.192,0a6.028,6.028,0,0,1-1.314,4.439,5.392,5.392,0,0,1-4.172,2.142,5.614,5.614,0,0,1,1.351-4.332A6.374,6.374,0,0,1,55.192,0Z" transform="translate(-38.471)" fill="#555" fill-rule="evenodd"/>
    </g>
    <text id="Sign_in_using" data-name="Sign in using" transform="translate(140 715)" fill="#586e90" font-size="16" font-family="SourceSansPro-Semibold, Source Sans Pro" font-weight="600" letter-spacing="0.039em"><tspan x="0" y="0">Sign in using</tspan></text>
    <g id="Group_43" data-name="Group 43" transform="translate(187.27 -164)">
      <g id="Group_44" data-name="Group 44" transform="translate(109.637 196)">
        <g id="Group_42" data-name="Group 42" transform="translate(4.528)">
          <g transform="matrix(1, 0, 0, 1, -301.44, -32)" filter="url(#Path_61)">
            <path id="Path_61-2" data-name="Path 61" d="M27.252,0c13.23,0,19.113,33.884,19.113,47.085S40.482,8.157,27.252,8.157,6.8,60.286,6.8,47.085,14.022,0,27.252,0Z" transform="translate(294.64 32)" fill="#193566"/>
          </g>
        </g>
        <g transform="matrix(1, 0, 0, 1, -296.91, -32)" filter="url(#Path_62)">
          <path id="Path_62-2" data-name="Path 62" d="M30.079,45.963C23.341,43.939.364,6.131.082.89c-.125-2.322-1.553-1.6,14.992,21.1,14.676,19.526,12.7,17.081,13.513,17.45a3.259,3.259,0,0,0,1.484.37c4.243.19,3.18-6.821,3.462-1.58.13,2.411.191,4.055-.222,5.182C32.887,44.579,33.13,45.687,30.079,45.963Z" transform="translate(340.66 81.04) rotate(166)" fill="#193566"/>
        </g>
      </g>
    </g>
  </g>
</svg>
