<svg xmlns="http://www.w3.org/2000/svg" xmlns:xlink="http://www.w3.org/1999/xlink" width="334" height="321" viewBox="0 0 334 321">
  <defs>
    <filter id="Shape_shadow" x="21.5" y="20.5" width="308" height="308" filterUnits="userSpaceOnUse">
      <feOffset dx="10" dy="10" input="SourceAlpha"/>
      <feGaussianBlur stdDeviation="7.5" result="blur"/>
      <feFlood flood-color="#97a7c3" flood-opacity="0.498"/>
      <feComposite operator="in" in2="blur"/>
      <feComposite in="SourceGraphic"/>
    </filter>
    <filter id="Shape_light" x="1.5" y="0.5" width="308" height="308" filterUnits="userSpaceOnUse">
      <feOffset dx="-10" dy="-10" input="SourceAlpha"/>
      <feGaussianBlur stdDeviation="7.5" result="blur-2"/>
      <feFlood flood-color="#fff"/>
      <feComposite operator="in" in2="blur-2"/>
      <feComposite in="SourceGraphic"/>
    </filter>
    <filter id="Path_61" x="48.219" y="21.658" width="235.97" height="283.639" filterUnits="userSpaceOnUse">
      <feOffset dy="3" input="SourceAlpha"/>
      <feGaussianBlur stdDeviation="3" result="blur-3"/>
      <feFlood flood-opacity="0.478"/>
      <feComposite operator="in" in2="blur-3"/>
      <feComposite in="SourceGraphic"/>
    </filter>
    <filter id="Path_62" x="23.423" y="44.581" width="258.876" height="304.757" filterUnits="userSpaceOnUse">
      <feOffset dy="3" input="SourceAlpha"/>
      <feGaussianBlur stdDeviation="3" result="blur-4"/>
      <feFlood flood-opacity="0.18"/>
      <feComposite operator="in" in2="blur-4"/>
      <feComposite in="SourceGraphic"/>
    </filter>
    <clipPath id="clip-logo">
      <rect width="334" height="321"/>
    </clipPath>
  </defs>
  <g id="logo" clip-path="url(#clip-logo)">
    <rect width="334" height="321" fill="#fff"/>
    <g id="Rectangle_52" data-name="Rectangle 52" fill="#ecf0f3" stroke="#707070" stroke-width="1">
      <rect width="334" height="327" stroke="none"/>
      <rect x="0.5" y="0.5" width="333" height="326" fill="none"/>
    </g>
    <g id="Shape" transform="translate(34 33.303)">
      <g transform="matrix(1, 0, 0, 1, -34, -33.3)" filter="url(#Shape_shadow)">
        <circle id="Shape_shadow-2" data-name="Shape shadow" cx="131.5" cy="131.5" r="131.5" transform="translate(34 33)" fill="#ecf0f3"/>
      </g>
      <g transform="matrix(1, 0, 0, 1, -34, -33.3)" filter="url(#Shape_light)">
        <circle id="Shape_light-2" data-name="Shape light" cx="131.5" cy="131.5" r="131.5" transform="translate(34 33)" fill="#ecf0f3"/>
      </g>
    </g>
    <g id="Group_43" data-name="Group 43" transform="translate(32.271 27.658)">
      <g id="Group_42" data-name="Group 42" transform="translate(24.948 0)">
        <g transform="matrix(1, 0, 0, 1, -57.22, -27.66)" filter="url(#Path_61)">
          <path id="Path_61-2" data-name="Path 61" d="M119.475,0c72.887,0,105.3,182.846,105.3,254.08S192.362,44.015,119.475,44.015,6.8,325.315,6.8,254.08,46.587,0,119.475,0Z" transform="translate(50.42 27.66)" fill="#193566"/>
        </g>
      </g>
      <g transform="matrix(1, 0, 0, 1, -32.27, -27.66)" filter="url(#Path_62)">
        <path id="Path_62-2" data-name="Path 62" d="M166.731,249.127C129.6,238.013,2.165,33.134.475,4.81-.274-7.738-8.114-3.9,83.53,119.218c81.275,105.885,70.347,92.624,74.818,94.636a18.319,18.319,0,0,0,8.175,2.038c23.355,1.138,17.319-36.769,19.008-8.445.777,13.029,1.156,21.915-1.084,27.994C182.144,241.725,183.513,247.716,166.731,249.127Z" transform="translate(273.3 292.31) rotate(166)" fill="#193566"/>
      </g>
    </g>
  </g>
</svg>
